<?xml version="1.0" standalone="no"?>
<!DOCTYPE svg PUBLIC "-//W3C//DTD SVG 20010904//EN"
 "http://www.w3.org/TR/2001/REC-SVG-20010904/DTD/svg10.dtd">
<svg version="1.0" xmlns="http://www.w3.org/2000/svg"
 width="512.000000pt" height="512.000000pt" viewBox="0 0 512.000000 512.000000"
 preserveAspectRatio="xMidYMid meet">
<metadata>
Created by potrace 1.14, written by Peter Selinger 2001-2017
</metadata>
<g transform="translate(0.000000,512.000000) scale(0.100000,-0.100000)"
fill="#000000" stroke="none">
<path d="M2532 4828 c-15 -15 -17 -340 -2 -369 12 -21 40 -25 58 -7 8 8 12 64
12 188 0 180 -4 200 -40 200 -9 0 -21 -5 -28 -12z"/>
<path d="M3200 4559 l0 -244 -78 -1 c-63 0 -85 -5 -118 -25 -169 -99 -161
-339 14 -425 26 -14 58 -19 110 -19 l72 1 0 -163 0 -163 163 0 163 0 0 78 c0
81 8 103 56 160 55 65 159 96 244 72 27 -8 65 -31 95 -57 59 -54 85 -123 75
-204 l-6 -49 246 0 246 0 -6 89 c-7 99 -8 105 -32 211 -9 41 -21 79 -26 85 -4
5 -8 17 -8 27 0 11 -22 66 -49 123 -125 265 -323 471 -576 601 -164 84 -314
126 -500 140 l-85 6 0 -243z"/>
<path d="M1569 4564 c-11 -14 -9 -25 16 -72 74 -141 150 -262 166 -262 29 0
49 11 49 28 0 17 -142 273 -168 305 -19 21 -45 22 -63 1z"/>
<path d="M2427 4154 c-1 -1 -22 -4 -47 -7 -25 -4 -56 -9 -70 -12 -14 -3 -36
-7 -50 -10 -52 -10 -198 -64 -270 -100 -72 -36 -183 -108 -244 -157 -118 -95
-261 -275 -332 -418 -32 -66 -91 -226 -100 -274 -2 -12 -9 -46 -16 -76 -14
-62 -17 -329 -5 -405 31 -195 101 -373 209 -533 48 -71 63 -90 138 -170 47
-50 160 -145 212 -179 24 -15 84 -48 133 -74 l90 -46 3 -126 3 -125 -110 -4
c-118 -3 -141 -12 -185 -72 -19 -25 -21 -42 -21 -166 0 -124 2 -141 21 -166
44 -60 67 -69 185 -72 l109 -4 1 -176 c0 -98 3 -190 5 -206 14 -85 92 -183
180 -227 48 -23 55 -24 294 -24 l245 0 53 27 c83 43 136 105 166 192 12 39 16
89 16 233 l0 183 95 0 c113 0 151 13 191 66 28 36 29 41 31 170 2 122 1 134
-20 164 -25 38 -65 70 -93 75 -10 2 -61 4 -111 4 l-93 1 0 128 1 127 67 30
c86 39 221 127 297 196 255 229 409 540 431 870 l6 89 -244 0 -244 0 0 73 c1
50 -5 84 -18 109 -85 173 -318 183 -422 18 -26 -40 -29 -54 -28 -122 l0 -78
-163 0 -163 0 0 165 0 165 -48 -6 c-135 -16 -253 77 -267 210 -9 83 14 144 75
199 57 52 115 71 189 63 l51 -5 0 245 0 245 -66 -3 c-36 -1 -66 -3 -67 -4z"/>
<path d="M872 3868 c-16 -16 -15 -43 1 -56 6 -5 75 -47 152 -92 151 -88 185
-96 185 -42 0 25 -14 36 -151 115 -83 48 -156 87 -163 87 -6 0 -17 -5 -24 -12z"/>
<path d="M612 2908 c-7 -7 -12 -20 -12 -29 0 -35 23 -40 205 -37 157 3 179 5
189 21 8 12 8 22 0 35 -10 15 -32 17 -190 20 -131 2 -183 -1 -192 -10z"/>
<path d="M4132 2908 c-7 -7 -12 -19 -12 -28 0 -36 20 -40 201 -40 146 0 179 3
189 15 10 12 10 21 2 40 l-12 25 -178 0 c-125 0 -182 -4 -190 -12z"/>
<path d="M1021 2037 c-79 -45 -149 -90 -155 -100 -13 -20 2 -50 26 -55 8 -2
83 36 166 84 137 79 152 90 152 115 0 23 -15 39 -38 39 -4 0 -72 -37 -151 -83z"/>
<path d="M3917 2105 c-32 -31 -7 -55 158 -146 17 -9 54 -31 83 -48 58 -34 72
-37 90 -19 21 21 14 54 -15 69 -15 8 -83 47 -152 87 -69 39 -130 72 -137 72
-7 0 -19 -7 -27 -15z"/>
</g>
</svg>
